<svg viewBox="0 0 200 200" xmlns="http://www.w3.org/2000/svg">
  <defs>
    <!-- Dark background -->
    <radialGradient id="bgGradient" cx="50%" cy="50%" r="50%">
      <stop offset="0%" style="stop-color:#1a1a1a;stop-opacity:1" />
      <stop offset="100%" style="stop-color:#0a0a0a;stop-opacity:1" />
    </radialGradient>

    <!-- Primary cyan gradient -->
    <linearGradient id="primaryGrad" x1="0%" y1="0%" x2="100%" y2="100%">
      <stop offset="0%" style="stop-color:#00ffff;stop-opacity:1" />
      <stop offset="50%" style="stop-color:#00ccff;stop-opacity:1" />
      <stop offset="100%" style="stop-color:#0099ff;stop-opacity:1" />
    </linearGradient>

    <!-- Electric blue gradient -->
    <linearGradient id="accentGrad" x1="0%" y1="0%" x2="100%" y2="100%">
      <stop offset="0%" style="stop-color:#4A90E2;stop-opacity:1" />
      <stop offset="100%" style="stop-color:#7B68EE;stop-opacity:1" />
    </linearGradient>

    <!-- Glow effects -->
    <filter id="strongGlow">
      <feGaussianBlur stdDeviation="4" result="coloredBlur"/>
      <feMerge>
        <feMergeNode in="coloredBlur"/>
        <feMergeNode in="SourceGraphic"/>
      </feMerge>
    </filter>

    <filter id="subtleGlow">
      <feGaussianBlur stdDeviation="2" result="coloredBlur"/>
      <feMerge>
        <feMergeNode in="coloredBlur"/>
        <feMergeNode in="SourceGraphic"/>
      </feMerge>
    </filter>
  </defs>

  <!-- Dark background -->
  <circle cx="100" cy="100" r="100" fill="url(#bgGradient)"/>

  <!-- Outer frame with subtle glow -->
  <circle cx="100" cy="100" r="88" fill="none" stroke="#00ffff" stroke-width="0.5" opacity="0.3"/>

  <!-- Main geometric structure - more angular and modern -->
  <g stroke="url(#primaryGrad)" stroke-width="2" fill="none" filter="url(#strongGlow)">
    <!-- Central diamond -->
    <polygon points="100,45 125,70 100,95 75,70" stroke-width="2.5"/>

    <!-- Connecting lines extending outward -->
    <line x1="100" y1="45" x2="100" y2="25" stroke-width="1.5"/>
    <line x1="125" y1="70" x2="145" y2="70" stroke-width="1.5"/>
    <line x1="100" y1="95" x2="100" y2="115" stroke-width="1.5"/>
    <line x1="75" y1="70" x2="55" y2="70" stroke-width="1.5"/>

    <!-- Corner extensions -->
    <line x1="112.5" y1="57.5" x2="125" y2="45" stroke-width="1"/>
    <line x1="112.5" y1="82.5" x2="125" y2="95" stroke-width="1"/>
    <line x1="87.5" y1="82.5" x2="75" y2="95" stroke-width="1"/>
    <line x1="87.5" y1="57.5" x2="75" y2="45" stroke-width="1"/>
  </g>

  <!-- Neural network nodes -->
  <g filter="url(#subtleGlow)">
    <!-- Central core -->
    <circle cx="100" cy="70" r="3" fill="url(#accentGrad)" stroke="#ffffff" stroke-width="0.5"/>

    <!-- Primary nodes -->
    <circle cx="85" cy="55" r="2" fill="url(#primaryGrad)"/>
    <circle cx="115" cy="55" r="2" fill="url(#primaryGrad)"/>
    <circle cx="85" cy="85" r="2" fill="url(#primaryGrad)"/>
    <circle cx="115" cy="85" r="2" fill="url(#primaryGrad)"/>

    <!-- Secondary nodes -->
    <circle cx="70" cy="70" r="1.5" fill="#00ffff" opacity="0.8"/>
    <circle cx="130" cy="70" r="1.5" fill="#00ffff" opacity="0.8"/>
    <circle cx="100" cy="40" r="1.5" fill="#00ffff" opacity="0.8"/>
    <circle cx="100" cy="100" r="1.5" fill="#00ffff" opacity="0.8"/>

    <!-- Connection lines with varying opacity -->
    <g stroke="#00ffff" stroke-width="0.8" opacity="0.6">
      <line x1="100" y1="70" x2="85" y2="55"/>
      <line x1="100" y1="70" x2="115" y2="55"/>
      <line x1="100" y1="70" x2="85" y2="85"/>
      <line x1="100" y1="70" x2="115" y2="85"/>
      <line x1="100" y1="70" x2="70" y2="70"/>
      <line x1="100" y1="70" x2="130" y2="70"/>
      <line x1="100" y1="70" x2="100" y2="40"/>
      <line x1="100" y1="70" x2="100" y2="100"/>
    </g>
  </g>

  <!-- Modern floating elements -->
  <g fill="none" stroke="#00ffff" stroke-width="0.8" opacity="0.4">
    <!-- Rotating scan lines -->
    <circle cx="100" cy="100" r="65" stroke-dasharray="2,8" opacity="0.3">
      <animateTransform attributeName="transform" type="rotate" values="0 100 100;360 100 100" dur="8s" repeatCount="indefinite"/>
    </circle>
    <circle cx="100" cy="100" r="75" stroke-dasharray="1,12" opacity="0.2">
      <animateTransform attributeName="transform" type="rotate" values="360 100 100;0 100 100" dur="12s" repeatCount="indefinite"/>
    </circle>
  </g>

  <!-- Data pulse particles -->
  <g>
    <circle r="1" fill="#00ffff" opacity="0.9">
      <animateMotion dur="3s" repeatCount="indefinite">
        <path d="M 75,70 L 125,70 L 100,45 L 100,95 Z"/>
      </animateMotion>
      <animate attributeName="opacity" values="0.9;0.3;0.9" dur="3s" repeatCount="indefinite"/>
    </circle>
    <circle r="0.8" fill="#7B68EE" opacity="0.8">
      <animateMotion dur="4s" repeatCount="indefinite">
        <path d="M 100,45 L 100,95 L 125,70 L 75,70 Z"/>
      </animateMotion>
      <animate attributeName="opacity" values="0.8;0.2;0.8" dur="4s" repeatCount="indefinite"/>
    </circle>
  </g>

  <!-- Modern typography -->
  <text x="100" y="145" text-anchor="middle" font-family="'JetBrains Mono', 'Fira Code', 'SF Mono', 'Monaco', 'Consolas', monospace"
        font-size="20" font-weight="400" fill="url(#primaryGrad)" letter-spacing="4px">
    JARVIS
  </text>

  <!-- Minimal subtitle with modern spacing -->
  <text x="100" y="160" text-anchor="middle" font-family="'Inter', 'SF Pro Display', 'Helvetica Neue', Arial, sans-serif"
        font-size="7" fill="#00ffff" opacity="0.6" letter-spacing="1.5px" font-weight="300">
    AI ASSISTANT
  </text>

  <!-- Accent line under text -->
  <line x1="70" y1="165" x2="130" y2="165" stroke="url(#primaryGrad)" stroke-width="0.5" opacity="0.4"/>
</svg>